<svg id="Logo_FIXED" data-name="Logo FIXED" xmlns="http://www.w3.org/2000/svg" viewBox="0 0 400 400"><defs><style>.cls-1{fill:none;}</style></defs><title>Artboard 1</title><rect class="cls-1" width="400" height="400"/><path d="M125.79,362.53c150.94,0,233.5-125.06,233.5-233.5,0-3.55,0-7.09-.24-10.61A167,167,0,0,0,400,75.94a163.81,163.81,0,0,1-47.14,12.91,82.35,82.35,0,0,0,36.08-45.39,164.46,164.46,0,0,1-52.11,19.92A82.14,82.14,0,0,0,197,138.23,233,233,0,0,1,27.84,52.48,82.13,82.13,0,0,0,53.25,162,81.46,81.46,0,0,1,16,151.76v1a82.1,82.1,0,0,0,65.84,80.45,81.94,81.94,0,0,1-37.06,1.41,82.16,82.16,0,0,0,76.67,57,164.67,164.67,0,0,1-101.92,35.2A167.06,167.06,0,0,1,0,325.67a232.34,232.34,0,0,0,125.79,36.8"/></svg>